<svg width="326" height="210"><defs id="SvgjsDefs4024"></defs><g id="main_text" rel="mainfill" name="main_text" feature="main_text" xmlns:name="mainText_mainfill" groupname="main_text" fill="#000000" transform="translate(-0.7283637407790228, 113.04901321045917) scale(2.8014029590578953)"><path d="M9.34 5.119999999999999 l5.24 14.88 l-1.64 0 c-0.18 0 -0.32 -0.12 -0.36 -0.26 l-1.34 -3.86 l-7.64 0 l-1.34 3.86 c-0.04 0.14 -0.2 0.26 -0.36 0.26 l-1.64 0 l4.88 -13.9 c0.24 -0.66 0.86 -1.12 1.58 -1.12 l2.38 0 c0.1 0 0.2 0.06 0.24 0.14 z M4.2 14.16 l6.44 0 l-2.6 -7.46 l-0.98 0 c-0.16 0 -0.3 0.1 -0.36 0.26 z M15.98 12.92 c0 -1.62 1.26 -2.92 2.88 -2.92 l2.32 0 c0.64 0 1.14 0.3 1.38 0.64 l0 -5.42 c0 -0.12 0.1 -0.22 0.22 -0.22 l1.52 0 l0 14.36 c0 0.36 -0.28 0.64 -0.64 0.64 l-4.76 0 c-1.62 0 -2.92 -1.3 -2.92 -2.92 l0 -4.16 z M17.72 12.84 l0 4.32 c0 0.66 0.52 1.18 1.18 1.18 l3.44 0 c0.12 0 0.22 -0.08 0.22 -0.2 l0 -5.46 c-0.04 -0.54 -0.46 -0.96 -0.96 -1.02 l-2.7 0 c-0.66 0 -1.18 0.52 -1.18 1.18 z M31.66 10 c1.62 0 2.92 0.98 2.92 2.8 l0 6.56 c0 0.36 -0.28 0.64 -0.64 0.64 l-0.22 0 l-0.88 0 l-3.58 0 c-1.62 0 -2.92 -1.3 -2.92 -2.92 l0 -0.62 c0 -1.62 1.3 -2.92 2.92 -2.92 l3.38 0 c0.12 0 0.22 -0.1 0.22 -0.22 l0 -0.5 c0 -0.64 -0.42 -1.18 -1.2 -1.18 l-3.98 0 c-0.12 0 -0.22 -0.1 -0.22 -0.22 l0 -1.42 l4.2 0 z M28.08 17.12 c0 0.66 0.52 1.18 1.18 1.18 l3.4 0 c0.12 0 0.2 -0.1 0.2 -0.22 l0 -3.18 c-0.1 0.18 -0.3 0.28 -0.52 0.3 l-3.08 0 c-0.66 0 -1.18 0.52 -1.18 1.18 l0 0.74 z M46.16 10 c1.62 0 2.92 1.3 2.92 2.92 l0 7.08 l-1.52 0 c-0.12 0 -0.22 -0.1 -0.22 -0.22 l0 -6.96 c0 -0.64 -0.52 -1.18 -1.18 -1.18 l-2.6 0 c0.2 0.12 0.36 0.32 0.36 0.56 l0 7.8 l-1.52 0 c-0.12 0 -0.22 -0.1 -0.22 -0.22 l0 -7.92 c0 -0.12 -0.1 -0.22 -0.22 -0.22 l-3.02 0 c-0.1 0 -0.18 0.08 -0.2 0.18 l0 7.96 c0 0.12 -0.1 0.22 -0.22 0.22 l-1.52 0 l0 -8.7 c0 -0.72 0.58 -1.3 1.3 -1.3 l7.86 0 z  M59.04 16.6 l0 -8.22 c0 -1.88 1.52 -3.4 3.4 -3.4 l6.6 0 l0 1.46 c0 0.14 -0.12 0.26 -0.26 0.26 l-6.34 0 c-0.84 0 -1.52 0.68 -1.52 1.52 l0 8.54 c0 0.84 0.68 1.52 1.52 1.52 l6.34 0 c0.14 0 0.26 0.12 0.26 0.26 l0 1.46 l-6.6 0 c-1.88 0 -3.4 -1.54 -3.4 -3.4 z M71.24 19.78 l0 -14.78 l1.52 0 c0.12 0 0.22 0.1 0.22 0.22 l0 5.42 c0.24 -0.34 0.74 -0.64 1.36 -0.64 l2.54 0 c1.6 0 2.78 0.92 2.78 2.8 l0 7.2 l-1.52 0 c-0.12 0 -0.22 -0.1 -0.22 -0.22 l0 -6.94 c0 -0.66 -0.52 -1.18 -1.18 -1.18 l-2.8 0 c-0.52 0.06 -0.92 0.48 -0.96 1.02 l0 7.32 l-1.52 0 c-0.12 0 -0.22 -0.1 -0.22 -0.22 z M83.58 10 c0.12 0 0.22 0.08 0.22 0.2 l0 9.8 l-1.52 0 c-0.12 0 -0.22 -0.1 -0.22 -0.22 l0 -9.78 l1.52 0 z M83.58 5.52 c0.12 0 0.22 0.1 0.22 0.22 l0 1.64 l-1.52 0 c-0.12 0 -0.22 -0.1 -0.22 -0.22 l0 -1.64 l1.52 0 z M87.84 5 c0.12 0 0.22 0.1 0.22 0.22 l0 14.78 l-1.52 0 c-0.12 0 -0.22 -0.1 -0.22 -0.22 l0 -14.78 l1.52 0 z M95.3 18.34 c0.12 0 0.22 0.1 0.22 0.22 l0 1.44 l-2.02 0 c-1.6 0 -2.92 -1.3 -2.92 -2.92 l0 -11.92 l1.52 0 c0.12 0 0.22 0.1 0.22 0.22 l0 5 c0.1 -0.22 0.32 -0.36 0.58 -0.36 l2.12 0 l0 1.44 c0 0.12 -0.1 0.2 -0.22 0.2 l-2.48 0 l0 5.5 c0 0.66 0.52 1.18 1.18 1.18 l1.8 0 z M102.84 20.14 l-2.64 0 c-1.62 0 -2.92 -1.3 -2.92 -2.92 l0 -4.44 c0 -1.6 1.3 -2.92 2.92 -2.92 l2.64 0 c1.62 0 2.94 1.32 2.94 2.92 l0 4.44 c0 1.62 -1.32 2.92 -2.94 2.92 z M100.2 11.52 c-0.66 0 -1.18 0.54 -1.18 1.18 l0 4.6 c0 0.66 0.52 1.2 1.18 1.2 l2.64 0 c0.66 0 1.2 -0.54 1.2 -1.2 l0 -4.6 c0 -0.64 -0.54 -1.18 -1.2 -1.18 l-2.64 0 z M113.78 10 c1.62 0 2.92 1.3 2.92 2.92 l0 7.08 l-1.52 0 c-0.12 0 -0.22 -0.1 -0.22 -0.22 l0 -6.96 c0 -0.64 -0.52 -1.18 -1.18 -1.18 l-3.62 0 c-0.12 0 -0.22 0.1 -0.22 0.22 l0 7.92 c0 0.12 -0.1 0.22 -0.22 0.22 l-1.52 0 l0 -8.7 c0 -0.72 0.58 -1.3 1.3 -1.3 l4.28 0 z"></path></g><g id="slogan_text" rel="mainfill" name="slogan_text" feature="slogan_text" xmlns:name="sloganText_mainfill" groupname="slogan_text" fill="#000000" transform="translate(115.65815247996919, 190.06169428871092) scale(0.7145652944231122)"><path d="M7.6758 8.886375 l6.748 14.482 l-1.543 0 l-2.2754 -4.7754 l-6.25 0 l-2.2559 4.7754 l-1.6211 0 l6.8457 -14.482 l0.35156 0 z M7.5 11.953375 l-2.5 5.2539 l4.9609 0 z M16.230509375 8.574375 l1.3867 0 l0 14.854 l-1.3867 0 l0 -14.854 z M20.253946875 8.574375 l1.3867 0 l0 14.854 l-1.3867 0 l0 -14.854 z  M33.720678125 21.914075 q-1.015625 0.546875 -1.9921875 0.087890625 q-1.19140625 -0.908203125 -1.1328125 -2.587890625 l0 -4.5313 l2.5391 0 l0 -1.1816 l-2.5488 0 l0 -5.1758 l-1.3867 0 l0 11.123 q-0.01953125 1.171875 0.537109375 2.1484375 q0.91796875 1.552734375 2.5 1.640625 q0.83984375 0.029296875 1.9140625 -0.380859375 q-0.166015625 -0.41015625 -0.4296875 -1.142578125 z M36.337853125 8.593375 l1.3867 0 l0 6.0645 q0.830078125 -1.103515625 1.831054688 -1.650390625 t2.1729 -0.54688 q1.2109375 0 2.138671875 0.6103515625 t1.3672 1.6357 t0.43945 3.2324 l0 5.5078 l-1.3672 0 l0 -5.1074 q0 -1.85546875 -0.15625 -2.48046875 q-0.25390625 -1.064453125 -0.927734375 -1.596679688 t-1.7676 -0.53223 q-1.25 0 -2.241210938 0.8251953125 t-1.3037 2.0459 q-0.185546875 0.78125 -0.185546875 2.919921875 l0 3.9258 l-1.3867 0 l0 -14.854 z M49.091778125 8.310375 q0.46875 0 0.8056640625 0.33203125 t0.33691 0.80078 t-0.33691 0.80566 t-0.80566 0.33691 t-0.80078 -0.33691 t-0.33203 -0.80566 t0.33203 -0.80078 t0.80078 -0.33203 z M48.408178125 12.714375 l1.377 0 l0 10.713 l-1.377 0 l0 -10.713 z M52.626915625 19.365275 l-0.019531 -1.1426 q-0.029296875 -0.83984375 0.068359375 -1.42578125 q0.21484375 -1.845703125 0.9375 -2.705078125 q0.703125 -0.751953125 1.435546875 -1.162109375 q1.2109375 -0.517578125 2.763671875 -0.48828125 q1.2109375 0 2.241210938 0.6103515625 t1.4697 1.6406 t0.43945 3.2275 l0 5.5078 l-1.3672 0 l0 -5.1074 q0 -1.85546875 -0.15625 -2.48046875 q-0.244140625 -1.064453125 -0.966796875 -1.508789063 t-2.1387 -0.44434 q-1.25 0 -2.2265625 0.72265625 t-0.9082 1.9727 q-0.185546875 0.80078125 -0.185546875 2.919921875 l0 3.9258 l-1.3867 0 l0 -4.0625 z M75.517140625 20.996075 q0 2.255859375 -0.400390625 3.30078125 q-0.537109375 1.474609375 -1.879882813 2.270507813 t-3.2178 0.7959 q-1.38671875 0 -2.48046875 -0.390625 t-1.7871 -1.0449 t-1.2695 -1.9141 l1.4941 0 q0.615234375 1.064453125 1.577148438 1.572265625 t2.3975 0.50781 q1.40625 0 2.377929688 -0.52734375 t1.3818 -1.3184 t0.41016 -2.5684 l0 -0.54688 q-0.771484375 0.986328125 -1.899414063 1.513671875 t-2.3779 0.52734 q-1.474609375 0 -2.778320313 -0.732421875 t-2.0117 -1.9775 t-0.70801 -2.7295 t0.7373 -2.7686 t2.0459 -2.0313 t2.7441 -0.74707 q1.2109375 0 2.197265625 0.37109375 q0.830078125 0.302734375 1.962890625 1.162109375 q0.95703125 0.791015625 1.50390625 3.017578125 q-0.01953125 0.29296875 -0.01953125 4.2578125 z M70.048840625 13.515375 q-1.171875 0 -2.172851563 0.56640625 t-1.5723 1.5625 t-0.57129 2.1582 q0 1.767578125 1.181640625 2.919921875 t3.0566 1.1523 q1.9140625 0 3.06640625 -1.142578125 t1.1523 -3.0078 q0 -1.2109375 -0.5322265625 -2.158203125 t-1.5039 -1.499 t-2.1045 -0.55176 z M83.8281625 13.632375 l-0.87891 0.91797 q-1.11328125 -1.07421875 -2.158203125 -1.07421875 q-0.673828125 0 -1.15234375 0.439453125 t-0.47852 1.0449 q0 0.5078125 0.400390625 0.9765625 q0.390625 0.498046875 1.650390625 1.142578125 q1.54296875 0.791015625 2.08984375 1.533203125 q0.537109375 0.751953125 0.537109375 1.689453125 q0 1.30859375 -0.9228515625 2.221679688 t-2.3096 0.91309 q-0.927734375 0 -1.772460938 -0.3955078125 t-1.3916 -1.1084 l0.86914 -0.98633 q1.0546875 1.19140625 2.236328125 1.19140625 q0.8203125 0 1.401367188 -0.5322265625 t0.58105 -1.2451 q0 -0.595703125 -0.380859375 -1.0546875 t-1.7285 -1.1523 q-1.455078125 -0.732421875 -1.97265625 -1.474609375 q-0.52734375 -0.72265625 -0.52734375 -1.66015625 q0 -1.220703125 0.8349609375 -2.026367188 t2.0947 -0.80566 q1.474609375 0 2.978515625 1.4453125 z  M90.18554725 12.734375 l1.416 0 l3.2813 7.7832 l3.4375 -7.7832 l0.24414 0 l3.418 7.7832 l3.3398 -7.7832 l1.4453 0 l-4.6484 10.713 l-0.27344 0 l-3.3984 -7.666 l-3.4375 7.666 l-0.25391 0 z M117.392703125 19.619175 l1.1523 0.61523 q-0.556640625 1.123046875 -1.30859375 1.806640625 t-1.6895 1.04 t-2.1191 0.35645 q-2.6171875 0 -4.091796875 -1.713867188 t-1.4746 -3.8721 q0 -2.041015625 1.25 -3.6328125 q1.58203125 -2.03125 4.248046875 -2.03125 q2.724609375 0 4.365234375 2.080078125 q1.162109375 1.46484375 1.171875 3.65234375 l-9.6191 0 q0.0390625 1.875 1.19140625 3.071289063 t2.8418 1.1963 q0.8203125 0 1.591796875 -0.2880859375 t1.3135 -0.75684 t1.1768 -1.5234 z M117.392703125 16.738275 q-0.2734375 -1.103515625 -0.80078125 -1.762695313 t-1.3965 -1.0645 t-1.8262 -0.40527 q-1.572265625 0 -2.705078125 1.015625 q-0.8203125 0.7421875 -1.240234375 2.216796875 l7.9688 0 z M122.324240625 21.347675 q-0.87890625 -1.46484375 -1.0546875 -2.880859375 q0 -10.16601563 0 -10.14648438 l1.3672 0 l0 5.9766 q0.869140625 -1.064453125 1.943359375 -1.586914063 t2.3535 -0.52246 q2.265625 0 3.876953125 1.650390625 t1.6113 4.0039 q0 2.314453125 -1.62109375 3.955078125 t-3.9063 1.6406 q-1.30859375 0 -2.456054688 -0.5029296875 t-2.1143 -1.5869 z M126.777340625 22.119175 q1.162109375 0 2.133789063 -0.5712890625 t1.5479 -1.5869 t0.57617 -2.168 q0 -1.1328125 -0.5810546875 -2.172851563 t-1.5625 -1.6113 t-2.0947 -0.57129 q-1.1328125 0 -2.1484375 0.5712890625 t-1.5625 1.5527 t-0.54688 2.1924 q0 1.865234375 1.23046875 3.115234375 t3.0078 1.25 z"></path></g><g id="SvgjsG4027" rel="mainfill" name="symbol" feature="symbol" xmlns:name="symbol_mainfill" fill="#ff9100" transform="translate(108, 4.742998641856223) scale(1.2210716457078148)"><g><path fill="#ff9100" d="M83.5,36.8c-3.7,0-6.6,2.9-6.6,6.6c0,1.4,0.5,2.8,1.3,3.8c-2.9,2.9-7.3,6.1-12.6,6.4   c-6.3,0.3-12.7-3.4-19-11.2c-7-8.7-14.3-12.9-21.8-12.4c-6.6,0.4-11.9,4.2-15.2,7.5c-0.9-0.4-1.8-0.6-2.8-0.6C3,36.8,0,39.7,0,43.4   c0,3.6,3,6.6,6.6,6.6c3.7,0,6.6-2.9,6.6-6.6c0-1.4-0.5-2.7-1.3-3.8c3-2.9,7.4-6.1,12.8-6.4c6.4-0.4,12.8,3.4,19.1,11.2   c6.7,8.3,13.7,12.5,20.8,12.5c0.3,0,0.7,0,1,0c6.5-0.4,11.7-4.2,15-7.5c0.8,0.4,1.8,0.6,2.8,0.6c3.7,0,6.6-2.9,6.6-6.6   C90.2,39.7,87.2,36.8,83.5,36.8z"></path><ellipse fill="#ff9100" cx="24.4" cy="15" rx="6.6" ry="6.6"></ellipse><ellipse fill="#ff9100" cx="63.7" cy="72.9" rx="6.6" ry="6.6"></ellipse></g></g></svg>